     <svg
          xmlns="http://www.w3.org/2000/svg"
          x="0"
          y="0"
		  width="100px"
          enableBackground="new 0 0 496 496"
          version="1.1"
          viewBox="0 0 496 496"
          xmlSpace="preserve"
        >
          <path
            fill="#F73974"
            d="M496 248c0 136.8-111.2 248-248 248S0 384.8 0 248 111.2 0 248 0s248 111.2 248 248z"
          />
          <path
            fill="#DD0772"
            d="M248 0c136.8 0 248 111.2 248 248S384.8 496 248 496"
          />
          <path
            fill="#ED266E"
            d="M72.8 72.8c96.8-96.8 253.6-96.8 350.4 0s96.8 253.6 0 350.4"
          />
          <path
            fill="#DD0772"
            d="M212.8 360.8c-1.6 0-4-.8-5.6-1.6-4-1.6-7.2-6.4-7.2-10.4V199.2c0-4 3.2-8.8 7.2-10.4 4-1.6 8.8-1.6 12.8.8l101.6 75.2c3.2 2.4 4.8 5.6 4.8 9.6s-1.6 7.2-4.8 9.6L220 359.2c-2.4.8-4.8 1.6-7.2 1.6z"
          />
          <path
            fill="#FFF"
            d="M212.8 334.4c-1.6 0-4-.8-5.6-1.6-4-1.6-7.2-6.4-7.2-10.4V172.8c0-4 3.2-8.8 7.2-10.4 4-1.6 8.8-1.6 12.8.8l101.6 75.2c3.2 2.4 4.8 5.6 4.8 9.6s-1.6 7.2-4.8 9.6L220 332.8c-2.4.8-4.8 1.6-7.2 1.6z"
          />
        </svg>
